<?xml version="1.0" encoding="utf-8"?>
<!-- Generator: Adobe Illustrator 23.0.3, SVG Export Plug-In . SVG Version: 6.00 Build 0)  -->
<svg version="1.1" id="Capa_1" xmlns="http://www.w3.org/2000/svg" xmlns:xlink="http://www.w3.org/1999/xlink" x="0px" y="0px"
	 viewBox="0 0 335.34 491.11" style="enable-background:new 0 0 335.34 491.11;" xml:space="preserve">
<style type="text/css">
	.st0{fill-rule:evenodd;clip-rule:evenodd;fill:#1C3055;}
	.st1{fill-rule:evenodd;clip-rule:evenodd;fill:#F6F6F6;}
	.st2{fill-rule:evenodd;clip-rule:evenodd;fill:#FECB2C;}
	.st3{fill-rule:evenodd;clip-rule:evenodd;fill:url(#SVGID_1_);}
	.st4{fill-rule:evenodd;clip-rule:evenodd;fill:url(#SVGID_2_);}
	.st5{fill-rule:evenodd;clip-rule:evenodd;fill:#00497A;}
	.st6{fill-rule:evenodd;clip-rule:evenodd;fill:url(#SVGID_3_);}
</style>
<g>
	<path class="st0" d="M221.87,43.81L86.33,102.56c-10.27,4.45-18.65,18.39-18.65,30.89V243.4c0,12.5,8.39,19.05,18.65,14.57
		l161.66-70.74c10.26-4.49,18.65-18.39,18.65-30.89V69.72C266.63,57.22,263.84,25.62,221.87,43.81"/>
	<path class="st1" d="M226.87,56.83L91.34,115.58c-7.4,3.21-12.92,14.31-12.92,22.16v109.95c0,1.54,0.38,5.44,2.04,6.3
		c0.87,0.45,2.48-0.1,3.28-0.45l161.65-70.74c7.4-3.24,12.95-14.29,12.95-22.17V74.01c0-4.93-0.5-10.71-2.54-15.24
		c-0.26-0.57-0.55-1.13-0.87-1.67C249.33,47.78,234.28,53.62,226.87,56.83"/>
	<path class="st2" d="M221.87,237.29L86.33,296.03c-10.27,4.45-18.65,18.39-18.65,30.89v109.95c0,12.5,8.39,19.05,18.65,14.57
		l161.66-70.74c10.26-4.49,18.65-18.39,18.65-30.89v-86.61C266.63,250.69,263.84,219.09,221.87,237.29"/>
	<linearGradient id="SVGID_1_" gradientUnits="userSpaceOnUse" x1="82.9622" y1="446.1158" x2="245.0449" y2="238.6593">
		<stop  offset="0.3658" style="stop-color:#DE9533"/>
		<stop  offset="0.6824" style="stop-color:#FECB2C"/>
	</linearGradient>
	<path class="st3" d="M225.65,246.02L90.12,304.76c-7.4,3.21-12.92,14.31-12.92,22.16v109.95c0,1.54,0.38,5.44,2.04,6.3
		c0.87,0.45,2.48-0.1,3.28-0.45l161.66-70.74c7.4-3.24,12.95-14.29,12.95-22.17v-86.61c0-4.93-0.5-10.71-2.54-15.24
		c-0.26-0.57-0.55-1.13-0.87-1.67C248.11,236.97,233.06,242.8,225.65,246.02"/>
	<linearGradient id="SVGID_2_" gradientUnits="userSpaceOnUse" x1="91.6343" y1="240.6689" x2="244.5892" y2="58.3843">
		<stop  offset="0.3658" style="stop-color:#A4A3A3"/>
		<stop  offset="0.6824" style="stop-color:#EDEDED"/>
	</linearGradient>
	<path class="st4" d="M225.01,63.56l-122.03,52.89c-6.66,2.89-18.37,11.58-18.37,18.65v99c0,1.39,7.08,6.2,8.58,6.97
		c0.79,0.41,2.23-0.09,2.95-0.4l145.55-63.7c6.66-2.92,11.66-12.87,11.66-19.96V79.03c0-4.44-0.45-9.64-2.29-13.72
		c-0.23-0.52-0.49-1.02-0.78-1.5C245.23,55.41,231.68,60.67,225.01,63.56"/>
	<path class="st0" d="M235.8,202.99L86.33,132.6c-10.36-4.88-18.65,1.13-18.65,13.63v109.95c0,12.5,8.39,26.82,18.65,31.82
		l161.66,78.84c10.26,5,18.65-1.13,18.65-13.63V240.47C266.63,227.97,269.01,218.64,235.8,202.99"/>
	<path class="st5" d="M256.67,214.59c-8.14-3.96-84.27-43.67-134.51-67c0.03-0.05,0.05-0.08,0.08-0.13
		c-0.37-0.11-0.7-0.22-1.06-0.32c-12.55-5.81-23.39-10.55-31.09-13.42c-4.75-3.53-7.06-7.15-6.91-10.84
		c0.11-4.37,3.25-8.48,9.25-12.34c1.31-0.65,2.7-1.25,4.24-1.75c69.11-31.04,109.44-48.59,121-52.64
		C246.68,42.41,263,48,266.62,72.9c1.28-19.55-5.71-33.39-20.43-34.57c-13.27-1.06-30.21,8.38-49.07,16.26
		c-32.19,13.45-64.56,28.16-97.15,41.79c-2.71,1.04-5.61,2.23-8.5,3.57c-0.98,0.4-1.96,0.83-2.94,1.23
		c-2.62,1.07-4.71,2.35-6.43,3.81c-5.11,3.29-9.19,7.12-10.5,11.5c-2.37,8.17-0.31,15.34,6.11,21.52c0.12,0.13,0.24,0.25,0.36,0.32
		c0.65,0.61,1.29,1.22,2.03,1.81c0.11,0,5.64,3.73,17.54,9.62c3.3,1.63,7.33,3.18,11.69,5.03c91.22,43.17,136.86,64.77,136.86,64.77
		c12.81,8.25,19.62,19.43,20.43,33.52C269.55,234.37,266.24,221.54,256.67,214.59z"/>
	<linearGradient id="SVGID_3_" gradientUnits="userSpaceOnUse" x1="70.6383" y1="145.4342" x2="261.7975" y2="350.4272">
		<stop  offset="3.977636e-07" style="stop-color:#0F5A72"/>
		<stop  offset="0.1368" style="stop-color:#14506B"/>
		<stop  offset="0.3591" style="stop-color:#194161"/>
		<stop  offset="0.5795" style="stop-color:#1B385A"/>
		<stop  offset="0.795" style="stop-color:#1C3256"/>
		<stop  offset="1" style="stop-color:#1C3055"/>
	</linearGradient>
	<path class="st6" d="M229.92,210.64l-149.47-70.4c-0.68-0.32-2.68-1.1-3.47-0.67c-1.3,0.7-1.61,4.5-1.61,5.69v109.95
		c0,8.18,5.81,19.62,13.3,23.27l161.65,78.84c0.65,0.32,2.53,1.08,3.29,0.68c1.34-0.7,1.67-4.53,1.67-5.76V239.51
		c0-2.62,0.17-5.43-0.1-8.02c-0.34-3.17-1.52-5.16-3.74-7.44C246.15,218.6,236.7,213.83,229.92,210.64"/>
	<path class="st0" d="M212.73,202.65L79.86,139.94c-0.68-0.32-4.35-1.87-5.13-1.44c-1.3,0.7,0.31,6.54,0.31,7.73v109.95
		c0,0.93,2.24,1.9,2.38,2.9c2.65,0.61,5.69,0.29,8.91-1.12L212.73,202.65z"/>
	<path class="st0" d="M72.82,255.2c2.45,16.49,11.14,25.88,26.05,28.19c-13.63-14.63-12.33-25.45,3.89-32.47
		C88.54,246.64,78.56,248.07,72.82,255.2"/>
</g>
</svg>
