<svg id="Capa_1" data-name="Capa 1" xmlns="http://www.w3.org/2000/svg" xmlns:xlink="http://www.w3.org/1999/xlink" viewBox="0 0 57.88 120"><defs><linearGradient id="Degradado_sin_nombre_17" x1="39.83" y1="122.12" x2="86.75" y2="62.08" gradientUnits="userSpaceOnUse"><stop offset="0.37" stop-color="#dd9533"/><stop offset="0.68" stop-color="#fdca2b"/></linearGradient><linearGradient id="Degradado_sin_nombre_5" x1="42.34" y1="62.66" x2="86.61" y2="9.9" gradientUnits="userSpaceOnUse"><stop offset="0.37" stop-color="#a2a2a2"/><stop offset="0.68" stop-color="#ececec"/></linearGradient><linearGradient id="Degradado_sin_nombre_49" x1="36.27" y1="35.09" x2="91.6" y2="94.43" gradientUnits="userSpaceOnUse"><stop offset="0" stop-color="#0d5b73"/><stop offset="0.07" stop-color="#0f566f"/><stop offset="0.39" stop-color="#174161"/><stop offset="0.7" stop-color="#1b3458"/><stop offset="1" stop-color="#1d3055"/></linearGradient></defs><title>logo</title><path d="M80,5.68l-39.23,17c-3,1.28-5.4,5.32-5.4,8.93V63.45c0,3.62,2.43,5.51,5.4,4.22L87.6,47.19c3-1.3,5.4-5.32,5.4-8.94V13.18c0-3.62-.81-12.76-13-7.5" transform="translate(-35.41 -4.07)" style="fill:#1d3055;fill-rule:evenodd"/><path d="M81.49,9.45l-39.23,17c-2.14.93-3.74,4.14-3.74,6.42V64.69c0,.45.11,1.57.59,1.82a1.37,1.37,0,0,0,1-.13L86.85,45.91C89,45,90.6,41.77,90.6,39.49V14.42A11.22,11.22,0,0,0,89.86,10c-.08-.16-.16-.33-.25-.48-1.62-2.7-6-1-8.12-.08" transform="translate(-35.41 -4.07)" style="fill:#f5f5f5;fill-rule:evenodd"/><path d="M80,61.68l-39.23,17c-3,1.29-5.4,5.32-5.4,8.94v31.83c0,3.62,2.43,5.51,5.4,4.21L87.6,103.19c3-1.3,5.4-5.32,5.4-8.94V69.18c0-3.62-.81-12.77-13-7.5" transform="translate(-35.41 -4.07)" style="fill:#fdca2b;fill-rule:evenodd"/><path d="M81.13,64.21l-39.23,17c-2.14.93-3.73,4.14-3.73,6.41v31.83c0,.44.11,1.57.59,1.82a1.38,1.38,0,0,0,1-.13l46.78-20.48c2.15-.93,3.75-4.13,3.75-6.41V69.18a11,11,0,0,0-.74-4.41,3.23,3.23,0,0,0-.25-.49c-1.62-2.69-6-1-8.12-.07" transform="translate(-35.41 -4.07)" style="fill-rule:evenodd;fill:url(#Degradado_sin_nombre_17)"/><path d="M81,11.4,45.63,26.71c-1.93.83-5.32,3.35-5.32,5.39V60.76c0,.4,2,1.79,2.48,2a1.29,1.29,0,0,0,.86-.12L85.77,44.22c1.93-.84,3.38-3.72,3.38-5.77V15.87a9.94,9.94,0,0,0-.67-4,3.48,3.48,0,0,0-.22-.43C86.8,9,82.88,10.56,81,11.4" transform="translate(-35.41 -4.07)" style="fill-rule:evenodd;fill:url(#Degradado_sin_nombre_5)"/><path d="M84.07,51.75,40.81,31.38c-3-1.41-5.4.33-5.4,3.94V67.15c0,3.62,2.43,7.76,5.4,9.21L87.6,99.18c3,1.44,5.4-.33,5.4-4V62.6c0-3.62.68-6.32-8.93-10.85" transform="translate(-35.41 -4.07)" style="fill:#1d3055;fill-rule:evenodd"/><path d="M90.11,55.11C87.76,54,65.72,42.47,51.18,35.72l0,0-.31-.09c-3.63-1.69-6.77-3.06-9-3.89-1.37-1-2-2.07-2-3.14,0-1.26.94-2.45,2.68-3.57a8.09,8.09,0,0,1,1.23-.5q30-13.48,35-15.24Q91.42,3.3,93,14.1c.37-5.66-1.65-9.66-5.91-10-3.84-.31-8.74,2.42-14.2,4.7C63.56,12.7,54.19,17,44.76,20.9c-.79.3-1.63.64-2.46,1l-.85.36a6.72,6.72,0,0,0-1.86,1.1,6.69,6.69,0,0,0-3,3.33A5.85,5.85,0,0,0,38.32,33l.1.09a7.54,7.54,0,0,0,.59.52s1.63,1.08,5.07,2.79c1,.47,2.13.92,3.39,1.45L87.08,56.55A11.88,11.88,0,0,1,93,66.25Q94.27,58.14,90.11,55.11Z" transform="translate(-35.41 -4.07)" style="fill:#00497b;fill-rule:evenodd"/><path d="M82.37,54,39.11,33.59c-.2-.09-.78-.32-1-.19s-.46,1.3-.46,1.64V66.87c0,2.37,1.68,5.68,3.85,6.73L88.28,96.42c.19.09.73.31,1,.2.39-.21.48-1.31.48-1.67V62.32a22.45,22.45,0,0,0,0-2.32,3.33,3.33,0,0,0-1.08-2.15A23,23,0,0,0,82.37,54" transform="translate(-35.41 -4.07)" style="fill-rule:evenodd;fill:url(#Degradado_sin_nombre_49)"/><path d="M77.39,51.65,38.94,33.5c-.2-.09-1.26-.54-1.49-.41s.09,1.89.09,2.23V67.15c0,.27.65.55.69.84a4.14,4.14,0,0,0,2.58-.32Z" transform="translate(-35.41 -4.07)" style="fill:#1d3055;fill-rule:evenodd"/><path d="M36.9,66.86Q38,74,44.44,75q-5.92-6.34,1.13-9.39-6.18-1.86-8.67,1.23" transform="translate(-35.41 -4.07)" style="fill:#1d3055;fill-rule:evenodd"/></svg>