<?xml version="1.0" encoding="UTF-8"?>
<!DOCTYPE svg PUBLIC "-//W3C//DTD SVG 1.1//EN" "http://www.w3.org/Graphics/SVG/1.1/DTD/svg11.dtd">
<svg xmlns="http://www.w3.org/2000/svg" version="1.1" width="1370px" height="300px" style="shape-rendering:geometricPrecision; text-rendering:geometricPrecision; image-rendering:optimizeQuality; fill-rule:evenodd; clip-rule:evenodd" xmlns:xlink="http://www.w3.org/1999/xlink">
<g><path style="opacity:0.956" fill="#02487a" d="M 549.5,34.5 C 547.766,22.2721 540.766,17.1055 528.5,19C 496.09,31.6926 464.09,45.3593 432.5,60C 429.921,61.0757 428.254,62.909 427.5,65.5C 424.857,67.8784 424.857,70.2118 427.5,72.5C 428.29,73.7942 429.29,74.9609 430.5,76C 458.217,88.0253 485.55,100.859 512.5,114.5C 514.102,116.074 516.102,116.741 518.5,116.5C 519.035,118.446 520.368,119.446 522.5,119.5C 531.003,122.667 538.836,127.001 546,132.5C 550.418,140.014 551.585,148.014 549.5,156.5C 548.833,150.494 546.5,145.161 542.5,140.5C 538.397,135.615 533.397,131.948 527.5,129.5C 522.232,126.866 516.899,124.199 511.5,121.5C 481.405,107.62 451.405,93.4536 421.5,79C 418.188,75.9007 416.521,72.0673 416.5,67.5C 417.312,61.8409 420.312,57.6742 425.5,55C 459.014,40.2742 492.681,25.9408 526.5,12C 537.926,8.29574 545.426,12.1291 549,23.5C 549.499,27.1516 549.665,30.8183 549.5,34.5 Z"/></g>
<g><path style="opacity:0.969" fill="#23365a" d="M 549.5,34.5 C 549.667,55.5026 549.5,76.5026 549,97.5C 547.645,102.38 545.145,106.547 541.5,110C 535.106,113.197 528.773,116.364 522.5,119.5C 520.368,119.446 519.035,118.446 518.5,116.5C 524.807,113.681 531.141,110.848 537.5,108C 540.164,105.331 541.998,102.164 543,98.5C 543.667,74.5 543.667,50.5 543,26.5C 540.185,20.8309 535.685,18.9976 529.5,21C 495.093,35.0402 461.093,49.8735 427.5,65.5C 428.254,62.909 429.921,61.0757 432.5,60C 464.09,45.3593 496.09,31.6926 528.5,19C 540.766,17.1055 547.766,22.2721 549.5,34.5 Z"/></g>
<g><path style="opacity:1" fill="#eaeaea" d="M 518.5,116.5 C 516.102,116.741 514.102,116.074 512.5,114.5C 512.5,113.833 512.833,113.5 513.5,113.5C 519.625,110.937 525.625,108.104 531.5,105C 510.5,87.3333 489.5,69.6667 468.5,52C 462.178,53.659 456.178,56.159 450.5,59.5C 441.464,61.5151 433.797,65.8485 427.5,72.5C 424.857,70.2118 424.857,67.8784 427.5,65.5C 461.093,49.8735 495.093,35.0402 529.5,21C 535.685,18.9976 540.185,20.8309 543,26.5C 543.667,50.5 543.667,74.5 543,98.5C 541.998,102.164 540.164,105.331 537.5,108C 531.141,110.848 524.807,113.681 518.5,116.5 Z"/></g>
<g><path style="opacity:0.932" fill="#151e34" d="M 733.5,46.5 C 737.81,47.0802 742.143,47.4135 746.5,47.5C 746.5,52.1667 746.5,56.8333 746.5,61.5C 736.449,59.5632 731.782,63.5632 732.5,73.5C 739.841,73.3337 747.174,73.5003 754.5,74C 750.353,76.9804 746.686,80.4804 743.5,84.5C 739.893,85.4892 736.226,85.8226 732.5,85.5C 732.5,103.5 732.5,121.5 732.5,139.5C 726.5,139.5 720.5,139.5 714.5,139.5C 714.5,121.5 714.5,103.5 714.5,85.5C 712.076,85.8076 709.743,85.4742 707.5,84.5C 705.752,79.9189 702.752,76.4189 698.5,74C 703.823,73.5006 709.156,73.334 714.5,73.5C 713.768,66.1442 714.934,59.1442 718,52.5C 722.694,48.9958 727.86,46.9958 733.5,46.5 Z"/></g>
<g><path style="opacity:0.954" fill="#151e34" d="M 817.5,50.5 C 823.167,50.5 828.833,50.5 834.5,50.5C 834.5,58.1667 834.5,65.8333 834.5,73.5C 838.555,73.1758 842.555,73.5091 846.5,74.5C 847.638,77.913 848.971,81.2464 850.5,84.5C 845.208,85.4948 839.875,85.8282 834.5,85.5C 834.333,97.5046 834.5,109.505 835,121.5C 835.5,123.333 836.667,124.5 838.5,125C 842.17,125.279 845.837,125.112 849.5,124.5C 849.5,129.167 849.5,133.833 849.5,138.5C 842.195,139.517 834.861,139.683 827.5,139C 822.765,137.932 819.598,135.099 818,130.5C 817.5,115.504 817.333,100.504 817.5,85.5C 814.167,85.5 810.833,85.5 807.5,85.5C 807.5,81.5 807.5,77.5 807.5,73.5C 810.833,73.5 814.167,73.5 817.5,73.5C 817.5,65.8333 817.5,58.1667 817.5,50.5 Z"/></g>
<g><path style="opacity:1" fill="#cacaca" d="M 513.5,113.5 C 511.756,111.25 509.756,109.083 507.5,107C 488.335,91.332 469.335,75.4986 450.5,59.5C 456.178,56.159 462.178,53.659 468.5,52C 489.5,69.6667 510.5,87.3333 531.5,105C 525.625,108.104 519.625,110.937 513.5,113.5 Z"/></g>
<g><path style="opacity:1" fill="#b0b1b1" d="M 450.5,59.5 C 469.335,75.4986 488.335,91.332 507.5,107C 509.756,109.083 511.756,111.25 513.5,113.5C 512.833,113.5 512.5,113.833 512.5,114.5C 485.55,100.859 458.217,88.0253 430.5,76C 429.29,74.9609 428.29,73.7942 427.5,72.5C 433.797,65.8485 441.464,61.5151 450.5,59.5 Z"/></g>
<g><path style="opacity:0.994" fill="#1d3055" d="M 416.5,67.5 C 416.521,72.0673 418.188,75.9007 421.5,79C 451.405,93.4536 481.405,107.62 511.5,121.5C 510.878,123.335 509.544,124.502 507.5,125C 484.583,135.195 461.583,145.195 438.5,155C 432.376,157.095 429.543,161.262 430,167.5C 431.42,171.345 433.587,174.678 436.5,177.5C 444.738,181.786 453.071,185.786 461.5,189.5C 470.862,194.264 480.362,198.931 490,203.5C 507,187.833 524,172.167 541,156.5C 541.173,150.984 541.673,145.651 542.5,140.5C 546.5,145.161 548.833,150.494 549.5,156.5C 549.667,180.836 549.5,205.169 549,229.5C 548.392,231.066 547.558,232.4 546.5,233.5C 543.57,234.299 540.57,234.632 537.5,234.5C 516.26,223.08 494.594,212.413 472.5,202.5C 461.232,196.866 449.899,191.199 438.5,185.5C 436.287,184.227 433.954,183.227 431.5,182.5C 422.643,179.139 417.143,172.806 415,163.5C 414.333,132.5 414.333,101.5 415,70.5C 415.232,69.2625 415.732,68.2625 416.5,67.5 Z"/></g>
<g><path style="opacity:0.934" fill="#151e34" d="M 601.5,71.5 C 612.37,70.7381 622.37,73.2381 631.5,79C 633.227,80.3894 634.561,82.0561 635.5,84C 632.018,87.8122 628.185,91.3122 624,94.5C 616.444,85.653 607.278,83.4864 596.5,88C 593.918,92.1805 595.252,94.8471 600.5,96C 609.23,97.7458 617.896,99.7458 626.5,102C 636.08,106.027 639.58,113.193 637,123.5C 634.427,131.739 628.927,136.905 620.5,139C 607.527,141.652 594.861,140.652 582.5,136C 579.091,133.966 576.091,131.466 573.5,128.5C 577.536,125.057 581.703,121.724 586,118.5C 593.008,125.714 601.508,128.214 611.5,126C 615.58,124.935 617.746,122.435 618,118.5C 617.097,117.299 615.931,116.465 614.5,116C 605.136,113.794 595.803,111.461 586.5,109C 575.892,101.97 573.725,92.8029 580,81.5C 586.036,75.5522 593.203,72.2189 601.5,71.5 Z"/></g>
<g><path style="opacity:0.942" fill="#151e34" d="M 670.5,71.5 C 677.928,71.5118 685.261,72.3452 692.5,74C 698.731,75.963 702.564,80.1296 704,86.5C 704.333,101.167 704.667,115.833 705,130.5C 705.269,133.352 706.103,136.018 707.5,138.5C 701.167,139.833 694.833,139.833 688.5,138.5C 687.902,137.205 687.402,135.872 687,134.5C 676.055,140.964 664.555,142.13 652.5,138C 643.249,131.926 640.082,123.426 643,112.5C 646.065,105.773 651.231,101.606 658.5,100C 668.143,97.9714 677.809,96.138 687.5,94.5C 687.747,91.495 686.747,88.995 684.5,87C 678.167,83.6667 671.833,83.6667 665.5,87C 664.214,89.0223 663.214,91.1889 662.5,93.5C 656.946,94.8059 651.446,94.8059 646,93.5C 645.08,86.5021 647.58,81.0021 653.5,77C 659.001,74.2205 664.668,72.3872 670.5,71.5 Z M 685.5,107.5 C 689.669,119.9 684.835,126.234 671,126.5C 663.582,127.082 660.249,123.749 661,116.5C 661.833,115 663,113.833 664.5,113C 671.64,111.213 678.64,109.379 685.5,107.5 Z"/></g>
<g><path style="opacity:0.941" fill="#151e34" d="M 770.5,71.5 C 796.58,71.2482 809.247,84.2482 808.5,110.5C 791.833,110.5 775.167,110.5 758.5,110.5C 760.907,121.72 767.907,126.554 779.5,125C 785.459,123.604 790.626,120.771 795,116.5C 800.219,118.525 805.053,121.192 809.5,124.5C 800.999,135.75 789.666,141.083 775.5,140.5C 752.806,140.473 740.806,129.139 739.5,106.5C 740.407,86.27 750.74,74.6033 770.5,71.5 Z M 771.5,85.5 C 780.966,84.5516 786.966,88.5516 789.5,97.5C 779.145,97.8319 768.812,97.4986 758.5,96.5C 761.385,90.9352 765.718,87.2686 771.5,85.5 Z"/></g>
<g><path style="opacity:0.942" fill="#151e34" d="M 848.5,73.5 C 854.833,73.5 861.167,73.5 867.5,73.5C 871.892,88.5115 876.392,103.511 881,118.5C 885.635,103.625 889.802,88.625 893.5,73.5C 899.5,73.5 905.5,73.5 911.5,73.5C 903.766,100.868 894.933,127.868 885,154.5C 879.975,159.286 873.975,161.286 867,160.5C 863.914,160.478 860.914,160.145 858,159.5C 857.171,154.467 857.338,149.467 858.5,144.5C 864.535,146.847 869.202,145.347 872.5,140C 864.394,117.848 856.394,95.6813 848.5,73.5 Z"/></g>
<g><path style="opacity:0.955" fill="#fcca2a" d="M 915.5,93.5 C 933.941,90.963 946.441,98.2963 953,115.5C 953.5,130.83 953.667,146.163 953.5,161.5C 947.833,161.5 942.167,161.5 936.5,161.5C 936.667,148.163 936.5,134.829 936,121.5C 932.732,111.298 926.232,108.465 916.5,113C 914.19,114.637 912.69,116.804 912,119.5C 911.5,133.496 911.333,147.496 911.5,161.5C 905.5,161.5 899.5,161.5 893.5,161.5C 892.075,146.701 893.908,132.367 899,118.5C 901.136,111.758 903.469,105.091 906,98.5C 909.181,96.6618 912.347,94.9952 915.5,93.5 Z"/></g>
<g><path style="opacity:1" fill="#183b5d" d="M 511.5,121.5 C 516.899,124.199 522.232,126.866 527.5,129.5C 505.221,149.109 483.221,169.109 461.5,189.5C 453.071,185.786 444.738,181.786 436.5,177.5C 433.587,174.678 431.42,171.345 430,167.5C 429.543,161.262 432.376,157.095 438.5,155C 461.583,145.195 484.583,135.195 507.5,125C 509.544,124.502 510.878,123.335 511.5,121.5 Z"/></g>
<g><path style="opacity:1" fill="#1a3559" d="M 527.5,129.5 C 533.397,131.948 538.397,135.615 542.5,140.5C 541.673,145.651 541.173,150.984 541,156.5C 524,172.167 507,187.833 490,203.5C 480.362,198.931 470.862,194.264 461.5,189.5C 483.221,169.109 505.221,149.109 527.5,129.5 Z"/></g>
<g><path style="opacity:0.939" fill="#151e34" d="M 689.5,143.5 C 695.167,143.5 700.833,143.5 706.5,143.5C 706.5,151.167 706.5,158.833 706.5,166.5C 711.5,166.5 716.5,166.5 721.5,166.5C 721.5,170.833 721.5,175.167 721.5,179.5C 716.5,179.5 711.5,179.5 706.5,179.5C 706.333,191.505 706.5,203.505 707,215.5C 707.5,216.667 708.333,217.5 709.5,218C 713.486,218.499 717.486,218.666 721.5,218.5C 721.8,223.099 721.467,227.599 720.5,232C 714.215,233.355 707.882,233.689 701.5,233C 696.237,232.067 692.404,229.234 690,224.5C 689.5,209.504 689.333,194.504 689.5,179.5C 686.167,179.5 682.833,179.5 679.5,179.5C 679.5,175.167 679.5,170.833 679.5,166.5C 682.833,166.5 686.167,166.5 689.5,166.5C 689.5,158.833 689.5,151.167 689.5,143.5 Z"/></g>
<g><path style="opacity:0.915" fill="#151e34" d="M 914.5,143.5 C 920.5,143.5 926.5,143.5 932.5,143.5C 932.5,151.167 932.5,158.833 932.5,166.5C 937.167,166.5 941.833,166.5 946.5,166.5C 946.5,170.833 946.5,175.167 946.5,179.5C 941.833,179.5 937.167,179.5 932.5,179.5C 932.333,191.505 932.5,203.505 933,215.5C 933.5,216.667 934.333,217.5 935.5,218C 939.152,218.499 942.818,218.665 946.5,218.5C 946.5,223.167 946.5,227.833 946.5,232.5C 940.184,233.358 933.85,233.524 927.5,233C 920.455,232.289 916.289,228.455 915,221.5C 914.5,207.504 914.333,193.504 914.5,179.5C 911.167,179.5 907.833,179.5 904.5,179.5C 904.5,175.167 904.5,170.833 904.5,166.5C 907.833,166.5 911.167,166.5 914.5,166.5C 914.5,158.833 914.5,151.167 914.5,143.5 Z"/></g>
<g><path style="opacity:0.961" fill="#151e34" d="M 757.5,165.5 C 760.167,165.5 762.833,165.5 765.5,165.5C 765.5,171.167 765.5,176.833 765.5,182.5C 756.514,181.906 750.014,185.573 746,193.5C 744.599,206.448 744.099,219.448 744.5,232.5C 738.833,232.5 733.167,232.5 727.5,232.5C 727.5,210.5 727.5,188.5 727.5,166.5C 733.167,166.5 738.833,166.5 744.5,166.5C 744.337,168.857 744.503,171.19 745,173.5C 748.579,169.724 752.746,167.057 757.5,165.5 Z"/></g>
<g><path style="opacity:0.932" fill="#151e34" d="M 863.5,165.5 C 875.33,163.923 886.33,166.09 896.5,172C 898.351,173.684 900.018,175.517 901.5,177.5C 898.148,181.686 894.314,185.353 890,188.5C 883.843,180.335 875.676,177.501 865.5,180C 861.493,181.026 860.159,183.36 861.5,187C 863.717,188.275 866.051,189.275 868.5,190C 876.221,191.411 883.887,193.077 891.5,195C 902.554,199.807 906.054,207.974 902,219.5C 899.5,224.667 895.667,228.5 890.5,231C 876.737,235.751 863.07,235.417 849.5,230C 846.073,228.204 842.906,226.037 840,223.5C 839.251,222.365 839.417,221.365 840.5,220.5C 844.206,217.624 848.039,214.957 852,212.5C 861.128,220.99 871.294,222.49 882.5,217C 885.172,213.251 884.172,210.584 879.5,209C 870.008,207.294 860.674,204.96 851.5,202C 843.283,197.053 840.45,189.886 843,180.5C 847.172,171.823 854.005,166.823 863.5,165.5 Z"/></g>
<g><path style="opacity:0.927" fill="#151e34" d="M 771.5,166.5 C 777.5,166.5 783.5,166.5 789.5,166.5C 789.333,181.17 789.5,195.837 790,210.5C 791.837,215.593 795.504,218.26 801,218.5C 808.571,218.225 813.571,214.558 816,207.5C 816.5,193.837 816.667,180.171 816.5,166.5C 822.5,166.5 828.5,166.5 834.5,166.5C 834.5,188.5 834.5,210.5 834.5,232.5C 828.5,232.5 822.5,232.5 816.5,232.5C 816.762,231.022 816.429,229.689 815.5,228.5C 804.222,235.89 792.555,236.39 780.5,230C 775.131,225.427 772.297,219.594 772,212.5C 771.5,197.17 771.333,181.837 771.5,166.5 Z"/></g>
<g><path style="opacity:0.933" fill="#fcc82b" d="M 431.5,182.5 C 433.954,183.227 436.287,184.227 438.5,185.5C 438.586,186.496 438.252,187.329 437.5,188C 434.931,188.898 432.598,190.065 430.5,191.5C 426.116,193.394 423.282,196.727 422,201.5C 421.5,229.165 421.333,256.831 421.5,284.5C 425.049,284.561 428.382,283.727 431.5,282C 456.075,270.877 480.742,260.044 505.5,249.5C 510.62,247.44 515.62,245.107 520.5,242.5C 526.564,240.634 532.231,237.967 537.5,234.5C 540.57,234.632 543.57,234.299 546.5,233.5C 543.601,238.896 539.267,242.73 533.5,245C 499.05,259.725 464.716,274.725 430.5,290C 426.928,291.405 423.261,291.738 419.5,291C 417.185,289.891 415.685,288.057 415,285.5C 414.333,257.5 414.333,229.5 415,201.5C 417.15,192.188 422.65,185.855 431.5,182.5 Z"/></g>
<g><path style="opacity:1" fill="#e7a730" d="M 438.5,185.5 C 449.899,191.199 461.232,196.866 472.5,202.5C 470.621,202.393 470.288,202.893 471.5,204C 488.266,216.371 504.599,229.204 520.5,242.5C 515.62,245.107 510.62,247.44 505.5,249.5C 481.903,230.686 458.236,211.853 434.5,193C 433.255,192.209 431.922,191.709 430.5,191.5C 432.598,190.065 434.931,188.898 437.5,188C 438.252,187.329 438.586,186.496 438.5,185.5 Z"/></g>
<g><path style="opacity:1" fill="#dd9632" d="M 430.5,191.5 C 431.922,191.709 433.255,192.209 434.5,193C 458.236,211.853 481.903,230.686 505.5,249.5C 480.742,260.044 456.075,270.877 431.5,282C 428.382,283.727 425.049,284.561 421.5,284.5C 421.333,256.831 421.5,229.165 422,201.5C 423.282,196.727 426.116,193.394 430.5,191.5 Z"/></g>
<g><path style="opacity:1" fill="#edb42f" d="M 472.5,202.5 C 494.594,212.413 516.26,223.08 537.5,234.5C 532.231,237.967 526.564,240.634 520.5,242.5C 504.599,229.204 488.266,216.371 471.5,204C 470.288,202.893 470.621,202.393 472.5,202.5 Z"/></g>
</svg>
