<?xml version="1.0" standalone="no"?>
<!DOCTYPE svg PUBLIC "-//W3C//DTD SVG 20010904//EN"
 "http://www.w3.org/TR/2001/REC-SVG-20010904/DTD/svg10.dtd">
<svg version="1.0" xmlns="http://www.w3.org/2000/svg"
 width="1370.000000pt" height="300.000000pt" viewBox="0 0 1370.000000 300.000000"
 preserveAspectRatio="xMidYMid meet">

<g transform="translate(0.000000,300.000000) scale(0.100000,-0.100000)"
fill="#000000" stroke="none">
<path d="M5255 2876 c-22 -7 -173 -71 -335 -141 -162 -71 -375 -163 -473 -204
-97 -42 -193 -89 -213 -105 -20 -15 -45 -49 -57 -75 -22 -45 -22 -55 -22 -516
l0 -470 24 -48 c45 -93 -4 -64 754 -434 270 -131 470 -223 487 -223 32 0 57
20 71 57 5 13 9 216 9 451 0 536 13 494 -190 601 l-90 47 96 44 c109 49 146
86 170 167 12 43 14 111 12 395 -3 320 -4 346 -23 383 -39 78 -119 103 -220
71z m152 -100 l28 -24 3 -366 c3 -461 13 -430 -163 -509 l-101 -44 -324 162
c-179 89 -374 183 -435 209 -114 49 -155 78 -155 106 0 9 10 26 23 37 19 19
962 433 1012 446 48 12 85 6 112 -17z"/>
</g>
</svg>
